<?xml version="1.0" standalone="no"?>
<!DOCTYPE svg PUBLIC "-//W3C//DTD SVG 20010904//EN"
 "http://www.w3.org/TR/2001/REC-SVG-20010904/DTD/svg10.dtd">
<svg version="1.0" xmlns="http://www.w3.org/2000/svg"
 width="260.000000pt" height="260.000000pt" viewBox="0 0 260.000000 260.000000"
 preserveAspectRatio="xMidYMid meet">
<metadata>
Created by potrace 1.14, written by Peter Selinger 2001-2017
</metadata>
<g transform="translate(0.000000,260.000000) scale(0.100000,-0.100000)"
fill="#000000" stroke="none">
<path d="M1004 2577 c-28 -25 -29 -26 -29 -136 0 -105 2 -112 25 -136 20 -19
39 -26 90 -30 36 -3 88 -11 115 -16 28 -6 60 -13 73 -15 68 -13 199 -62 286
-107 359 -184 614 -526 690 -926 9 -46 16 -98 16 -116 0 -47 19 -94 44 -107
11 -7 64 -13 116 -14 149 -2 175 19 165 139 -45 559 -392 1068 -901 1321 -173
86 -393 147 -578 161 -79 6 -85 5 -112 -18z"/>
<path d="M112 2110 c-46 -5 -98 -46 -107 -83 -9 -33 0 -1407 8 -1442 69 -279
250 -474 517 -556 60 -18 99 -23 200 -23 127 -1 161 5 270 47 91 35 170 86
245 161 83 82 142 177 182 291 24 72 27 94 28 220 0 120 -3 151 -23 215 -73
232 -251 414 -475 485 -119 38 -160 31 -204 -34 -21 -32 -23 -44 -23 -182 0
-193 7 -212 102 -258 82 -39 138 -121 141 -205 3 -102 -50 -191 -137 -232
-127 -59 -271 -5 -328 122 -19 45 -20 66 -20 712 0 653 0 668 -21 704 -11 20
-32 42 -46 47 -28 12 -239 19 -309 11z"/>
<path d="M998 2082 c-22 -26 -24 -36 -22 -128 1 -54 2 -104 3 -111 3 -29 45
-51 114 -62 362 -54 650 -350 690 -707 10 -88 38 -103 186 -99 148 4 162 31
121 230 -56 274 -210 515 -440 687 -162 122 -421 218 -587 218 -33 0 -46 -6
-65 -28z"/>
</g>
</svg>
